<svg width="410" height="209" viewBox="0 0 410 209" fill="none" xmlns="http://www.w3.org/2000/svg">
<path d="M407.029 166.982C404.954 158.133 401.53 149.765 396.965 142.071C396.343 141.013 395.617 139.858 394.89 138.8C389.599 130.625 383.063 123.315 375.489 116.967C374.555 116.101 373.518 115.331 372.48 114.562C364.388 108.31 355.154 103.212 345.194 99.5571C343.949 99.0762 342.704 98.6915 341.459 98.3067C331.5 95.0365 320.71 93.209 309.608 93.0166C308.986 93.0166 308.26 93.0166 307.637 93.0166C307.015 93.0166 306.289 93.0166 305.666 93.0166C294.461 93.209 283.775 95.0365 273.815 98.3067C272.57 98.6915 271.325 99.1724 270.08 99.5571C260.12 103.212 250.886 108.31 242.794 114.562C241.757 115.331 240.719 116.197 239.785 116.967C232.212 123.315 225.572 130.625 220.384 138.8C219.658 139.858 219.036 141.013 218.309 142.071C213.744 149.765 210.321 158.133 208.246 166.982C207.934 168.233 207.727 169.483 207.416 170.734C206.378 176.12 205.859 181.602 205.859 187.181H409.311C409.311 181.602 408.793 176.024 407.755 170.734C407.548 169.483 407.34 168.233 407.029 166.982Z" fill="#0F264C"/>
<path d="M15.7051 173.478C15.7051 192.983 27.7634 208.742 42.5936 208.742H69.4822C84.3124 208.742 96.2321 192.854 96.2321 173.478C96.2321 153.973 84.1738 138.214 69.3435 138.214C69.0663 138.214 68.9277 138.214 68.6505 138.214H42.5936C27.6248 138.214 15.7051 154.102 15.7051 173.478Z" fill="#402B2B"/>
<path d="M226.377 173.09C226.377 192.595 238.435 208.354 253.265 208.354H280.154C294.984 208.354 306.904 192.466 306.904 173.09C306.904 153.585 294.846 137.826 280.015 137.826C279.738 137.826 279.6 137.826 279.322 137.826H253.265C238.297 137.826 226.377 153.585 226.377 173.09Z" fill="#F48767"/>
<path d="M13.9043 170.12L122.151 169.861L109.677 163.015L27.7644 163.144L13.9043 170.12Z" fill="#402B2B"/>
<path d="M-88.2451 112.638L-88.1065 177.353L-0.233696 177.224L27.7636 163.145L109.677 163.015L134.902 176.966L313.697 176.578C316.607 176.578 318.964 174.382 318.964 171.67L318.825 111.863L-88.2451 112.638Z" fill="#F36F49"/>
<path d="M103.303 127.363L243.566 127.105L243.289 8.65453C243.289 3.87517 239.131 0 233.864 0L102.887 0.25836L103.303 127.363Z" fill="#F48767"/>
<path d="M-115.41 127.88L103.163 127.493L102.886 0.387695L-106.401 0.775195C-111.529 0.775195 -115.688 4.65034 -115.688 9.55887L-115.41 127.88Z" fill="#F06A5B"/>
<path d="M208.637 173.09C208.637 192.595 196.718 208.354 181.887 208.354H155.137V196.47C145.297 196.47 137.258 186.007 137.258 173.09C137.258 160.173 145.158 149.71 154.999 149.71V137.826H181.749C196.579 137.955 208.499 153.714 208.637 173.09Z" fill="#F48767"/>
<path d="M132.963 173.349C132.963 189.366 142.804 202.284 155 202.154C167.197 202.154 176.899 189.237 176.899 173.22C176.899 157.203 167.059 144.285 154.862 144.415C142.804 144.415 132.963 157.332 132.963 173.349Z" fill="#F48767"/>
<path d="M154.998 192.337C163.037 192.337 169.413 183.811 169.413 173.219C169.413 162.627 162.899 154.231 154.86 154.231C146.821 154.231 140.445 162.756 140.445 173.348C140.445 183.94 146.96 192.337 154.998 192.337ZM154.998 161.981C159.711 161.981 163.592 167.019 163.592 173.219C163.592 179.419 159.711 184.586 154.998 184.586C150.286 184.586 146.405 179.549 146.405 173.348C146.405 167.019 150.147 161.981 154.998 161.981Z" fill="#F7A58D"/>
<path d="M154.999 208.483C169.829 208.483 181.749 192.595 181.749 173.219C181.749 153.844 169.691 137.956 154.86 137.956C140.03 137.956 128.11 153.844 128.11 173.219C128.11 192.595 140.307 208.613 154.999 208.483ZM154.86 144.414C167.057 144.414 176.898 157.331 176.898 173.219C176.898 189.237 167.196 202.154 154.999 202.154C142.802 202.154 132.961 189.237 132.961 173.349C132.961 157.331 142.802 144.414 154.86 144.414Z" fill="#F7A58D"/>
<path d="M151.257 173.22C151.257 170.507 152.92 168.44 154.86 168.44C156.801 168.44 158.464 170.636 158.603 173.22C158.603 175.932 156.94 177.999 154.999 177.999C152.92 178.128 151.257 175.932 151.257 173.22Z" fill="#F48766"/>
<path d="M336.426 76.5993C336.426 77.116 336.842 77.5035 337.258 77.6326C338.367 77.891 342.525 77.891 343.772 77.5035C344.326 77.3743 344.881 76.9868 344.881 76.3409C345.297 66.0072 345.297 55.9318 344.881 46.3731C344.881 45.7272 344.326 45.3397 343.772 45.2105C342.386 44.823 337.535 44.5646 336.01 45.0813C335.456 45.2105 335.04 45.7272 335.04 46.2439C334.763 56.061 335.179 66.1364 336.426 76.5993Z" fill="#F69276"/>
<path d="M329.636 85.7701C329.775 85.7701 329.913 85.7701 330.191 85.641L339.615 81.2491C341.833 80.2157 343.219 78.149 343.219 75.8239L343.081 43.4017C343.081 42.11 341.972 41.0767 340.586 41.0767H314.667C313.974 41.0767 313.559 41.5933 313.559 42.11C313.559 42.7559 314.113 43.1434 314.667 43.1434H340.586C340.724 43.1434 340.724 43.2726 340.724 43.2726L340.863 75.6947C340.863 77.2448 339.893 78.5365 338.507 79.1824L329.082 83.5742C328.527 83.8326 328.25 84.4784 328.527 84.9951C328.805 85.641 329.22 85.7701 329.636 85.7701Z" fill="#F69276"/>
<path d="M122.152 127.105C122.152 127.105 125.755 127.105 131.3 127.105H153.337C169.83 127.105 173.711 134.726 183.829 153.456L215.846 153.326C215.846 153.326 215.846 151.131 215.846 147.385L338.092 147.126C338.646 137.697 339.755 118.579 339.755 100.495C339.755 99.8494 339.755 99.3327 339.755 98.6868C339.755 93.52 338.785 87.8364 337.121 82.1528C330.607 59.9353 314.114 36.2968 307.322 27.6423C305.105 24.8005 303.164 22.3463 301.501 20.1504C296.789 14.3376 293.601 11.3667 287.641 11.3667L139.477 11.7542C136.428 11.7542 133.656 13.6918 132.824 16.4044C120.073 60.0645 122.013 93.2616 122.152 127.105ZM247.031 27.1256C246.892 26.4798 247.447 25.9631 248.14 25.9631L293.185 25.8339C295.818 25.8339 298.452 27.1257 300.115 29.3216C317.717 51.6683 324.786 72.0774 327.419 83.8321L330.191 96.2326C330.607 98.041 329.36 99.4619 327.419 99.4619H316.47C314.668 99.4619 312.728 98.6868 311.342 97.3951L288.888 77.3735C286.394 75.1775 283.067 73.8859 279.879 73.8859H252.991L247.031 27.1256Z" fill="#F36F49"/>
<path d="M223.744 82.541C224.714 86.6745 225.823 90.9372 226.793 95.4583C227.486 98.5584 230.397 100.754 233.723 100.883C277.521 102.304 313.835 102.434 339.753 100.625C339.753 99.9793 339.753 99.4626 339.753 98.8167C339.753 93.6498 338.783 87.9663 337.119 82.2827L223.744 82.541Z" fill="#F6977C"/>
<path d="M142.802 26.0926L187.847 25.9634C190.48 25.9634 192.837 27.2551 194.084 29.451C206.697 51.7978 209.33 72.2069 209.33 83.9616V96.3621C209.33 98.1705 207.805 99.5914 205.865 99.5914H194.916C193.114 99.5914 191.312 98.8164 190.203 97.5246L172.185 77.503C170.106 75.3071 167.196 73.8862 164.008 74.0154H137.119L141.416 27.2551C141.416 26.6092 141.97 26.0926 142.802 26.0926Z" fill="#F36F49"/>
<path d="M122.152 127.105C122.152 127.105 125.755 127.105 131.3 127.105H153.337C169.83 127.105 173.711 134.726 183.829 153.456L215.846 153.326C215.846 153.326 215.846 151.131 215.846 147.385L338.092 147.126C338.646 137.697 339.755 118.579 339.755 100.495C313.837 102.304 277.385 102.304 233.725 100.754C230.399 100.624 227.488 98.4285 226.795 95.3284C225.825 90.8074 224.716 86.4155 223.746 82.4112C217.786 58.7728 211.272 41.8512 202.679 23.5088C201.986 22.088 203.095 20.4087 204.758 20.4087L301.501 20.1504C296.789 14.3376 293.601 11.3667 287.641 11.3667L139.477 11.7542C136.428 11.7542 133.656 13.6918 132.824 16.4044C120.073 60.0645 122.013 93.2616 122.152 127.105ZM136.982 74.015L141.279 27.2548C141.279 26.609 141.972 26.0923 142.665 26.0923L187.71 25.9631C190.343 25.9631 192.7 27.2548 193.947 29.4508C206.56 51.7975 209.193 72.2066 209.193 83.9612V96.3617C209.193 98.1702 207.668 99.591 205.728 99.591H194.779C192.977 99.591 191.175 98.816 190.066 97.5243L172.048 77.5026C169.969 75.3067 167.058 73.8859 163.871 74.015H136.982Z" fill="#F7A58D"/>
<path d="M127.556 123.747C127.556 125.684 129.219 127.105 131.298 127.105H153.335C169.829 127.105 173.71 134.726 183.828 153.456L215.844 153.327C215.844 153.327 215.844 151.131 215.844 147.385L215.706 95.0705C215.706 69.1069 210.716 52.7021 197.549 26.7386C195.609 22.8634 191.312 20.4092 186.738 20.4092L139.06 20.5383C137.951 20.5383 137.119 21.1842 136.842 22.0884C127.417 55.4147 127.417 109.667 127.556 123.747ZM136.981 74.0155L141.277 27.2553C141.277 26.6094 141.97 26.0927 142.663 26.0927L187.708 25.9636C190.342 25.9636 192.698 27.2553 193.945 29.4512C206.558 51.7979 209.192 72.2071 209.192 83.9617V96.3622C209.192 98.1706 207.667 99.5915 205.727 99.5915H194.777C192.975 99.5915 191.173 98.8165 190.065 97.5247L172.047 77.5031C169.968 75.3072 167.057 73.8863 163.869 74.0155H136.981Z" fill="#F58A6B"/>
<path d="M143.079 27.6426L187.847 27.5135C189.787 27.5135 191.589 28.5468 192.559 30.0969C205.588 53.2187 207.667 73.757 207.667 83.8324V96.2329C207.667 97.1371 206.835 97.9122 205.865 97.9122H194.916C193.53 97.9122 192.282 97.3955 191.451 96.4913L173.433 76.4696C171.076 73.8862 167.611 72.3361 163.869 72.3361H138.921L143.079 27.6426ZM142.802 26.0926C142.109 26.0926 141.416 26.6092 141.416 27.2551L137.119 74.0154H164.008C167.196 74.0154 170.106 75.3071 172.185 77.503L190.203 97.5246C191.312 98.8164 193.114 99.5914 194.916 99.5914H205.865C207.805 99.5914 209.33 98.1705 209.33 96.3621V83.9616C209.33 72.2069 206.697 51.7978 194.084 29.451C192.837 27.2551 190.48 25.9634 187.847 25.9634L142.802 26.0926Z" fill="#F7A58D"/>
<path d="M215.708 122.713V147.385L264.08 147.256C263.525 140.797 262.278 134.597 260.199 128.784C259.367 126.459 257.288 124.78 254.655 124.392C243.983 123.23 230.4 122.713 215.708 122.713ZM313.56 147.256H337.538C337.954 141.83 338.37 133.047 338.785 123.1C332.964 123.359 327.559 123.875 322.708 124.521C320.074 124.909 317.995 126.588 317.164 128.913C315.223 134.597 314.115 140.797 313.56 147.256Z" fill="#F6977C"/>
<path d="M215.846 172.186L327.974 171.928C335.597 171.928 341.834 166.115 341.834 159.01V156.815C341.834 154.748 340.032 153.198 337.953 153.198L215.984 153.456L215.846 172.186Z" fill="#F6977C"/>
<path d="M195.194 172.187H215.845V153.457H184.105L187.57 166.503C188.402 169.861 191.59 172.187 195.194 172.187Z" fill="#F7A58D"/>
<path d="M145.851 103.855C150.564 103.984 159.712 104.888 159.712 107.988C159.712 111.088 151.673 112.122 145.158 112.122C138.644 112.122 137.951 108.763 137.397 107.342C136.981 105.921 136.565 103.725 145.851 103.855Z" fill="#F6977C"/>
<path d="M146.268 107.213C144.05 107.213 141.694 106.567 140.585 105.534C141.417 105.146 142.664 104.759 144.604 104.759C148.208 104.759 154.029 105.146 157.078 106.438C156.663 106.696 155.554 107.213 153.752 107.213C151.534 107.213 148.624 107.213 146.268 107.213Z" fill="#F47B58"/>
<path d="M155.554 109.667C156.386 109.667 156.802 109.797 156.94 109.926C154.446 110.959 149.872 111.347 147.654 111.347C144.466 111.347 142.249 111.347 141.556 110.701C142.11 110.313 143.357 109.667 144.605 109.667C146.268 109.797 154.446 109.667 155.554 109.667Z" fill="#F47B58"/>
<path d="M215.846 147.514C215.846 151.26 215.846 153.456 215.846 153.456L337.676 153.198C337.676 153.198 337.814 151.002 338.091 147.256L215.846 147.514Z" fill="#F58A6B"/>
<g opacity="0.2">
<path d="M268.376 121.421V146.093L309.263 145.964V121.292C309.263 118.321 306.353 115.996 302.749 115.996H274.752C271.287 116.125 268.376 118.58 268.376 121.421Z" fill="#F16036"/>
</g>
<path d="M322.984 145.189H331.577C333.795 145.189 335.735 143.51 335.735 141.314V137.31C335.735 135.243 333.934 133.435 331.577 133.435H322.984C320.767 133.435 318.826 135.114 318.826 137.31V141.314C318.826 143.51 320.767 145.189 322.984 145.189Z" fill="white"/>
<path d="M241.623 145.448H250.216C252.434 145.448 254.374 143.768 254.374 141.572V137.568C254.374 135.501 252.572 133.693 250.216 133.693H241.623C239.405 133.693 237.465 135.372 237.465 137.568V141.572C237.465 143.639 239.267 145.448 241.623 145.448Z" fill="white"/>
<path d="M186.184 76.858C186.184 77.3747 186.599 77.7622 187.015 77.8914C192.421 78.4081 198.103 78.408 203.925 77.7622C204.618 77.633 205.033 77.2455 205.033 76.5996C205.449 66.2659 205.449 56.1905 205.033 46.6318C205.033 45.9859 204.479 45.5984 203.925 45.4693C197.965 44.8234 192.005 44.8234 185.768 45.4693C185.213 45.5984 184.798 46.1151 184.798 46.6318C184.382 56.3197 184.936 66.3951 186.184 76.858Z" fill="#F7A58D"/>
<path d="M207.666 86.0289C208.082 86.0289 208.497 85.7706 208.636 85.3831C208.913 84.8664 208.636 84.2205 208.081 83.9622L198.657 79.6995C197.271 79.0536 196.3 77.6327 196.3 76.2118L196.162 43.7897C196.162 43.6605 196.3 43.6605 196.3 43.6605H202.122C202.815 43.6605 203.23 43.1438 203.23 42.6271C203.23 41.9813 202.676 41.5938 202.122 41.5938H196.3C194.914 41.5938 193.806 42.6271 193.806 43.9188L193.944 76.341C193.944 78.6661 195.33 80.7329 197.548 81.7663L206.973 86.0289C207.389 86.0289 207.527 86.0289 207.666 86.0289Z" fill="#F69276"/>
<path d="M271.233 173.716L310.457 173.636L310.431 162.657L271.208 162.736L271.233 173.716Z" fill="#F8B4A0"/>
<path opacity="0.6" d="M202.411 23.9C211.004 42.2424 217.38 59.1639 223.478 82.8023L336.854 82.544C330.339 60.3264 313.846 36.688 307.054 28.0335C304.837 25.1917 302.896 22.7374 301.233 20.5415L204.49 20.7999C202.827 20.929 201.718 22.4791 202.411 23.9Z" fill="url(#paint0_linear)"/>
<path d="M134.568 185.603C132.53 176.862 129.169 168.596 124.687 160.995C124.076 159.949 123.363 158.809 122.65 157.764C117.455 149.688 111.037 142.467 103.601 136.197C102.684 135.341 101.666 134.581 100.647 133.821C92.702 127.645 83.6362 122.61 73.8573 118.999C72.635 118.524 71.4126 118.144 70.1903 117.764C60.4115 114.534 49.8177 112.729 38.9184 112.539C38.3072 112.539 37.5942 112.539 36.9831 112.539C36.3719 112.539 35.6588 112.539 35.0476 112.539C24.0465 112.729 13.5546 114.534 3.77576 117.764C2.55341 118.144 1.33109 118.619 0.108734 118.999C-9.67009 122.61 -18.7359 127.645 -26.6812 133.821C-27.6998 134.581 -28.7184 135.436 -29.6352 136.197C-37.0712 142.467 -43.5904 149.688 -48.6836 157.764C-49.3966 158.809 -50.0078 159.949 -50.7208 160.995C-55.2028 168.596 -58.5642 176.862 -60.6015 185.603C-60.9071 186.838 -61.1108 188.073 -61.4164 189.308C-62.435 194.629 -62.9443 200.044 -62.9443 205.555H136.809C136.809 200.044 136.299 194.534 135.281 189.308C135.077 188.073 134.873 186.838 134.568 185.603Z" fill="#FCDDD4"/>
<defs>
<linearGradient id="paint0_linear" x1="255.3" y1="0.781219" x2="303.325" y2="124.316" gradientUnits="userSpaceOnUse">
<stop stop-color="#F7A58D"/>
<stop offset="0.926161" stop-color="white"/>
</linearGradient>
</defs>
</svg>
